<?xml version="1.0" encoding="UTF-8"?>
<svg width="323px" height="335px" viewBox="0 0 323 335" version="1.1" xmlns="http://www.w3.org/2000/svg" xmlns:xlink="http://www.w3.org/1999/xlink">
    <!-- Generator: Sketch 52.2 (67145) - http://www.bohemiancoding.com/sketch -->
    <title>fountain-pen-close-up</title>
    <desc>Created with Sketch.</desc>
    <g id="Page-1" stroke="none" strokeWidth="1" fill="none" fillRule="evenodd">
        <g id="fountain-pen-close-up" fill="#FFFFFF">
            <path d="M29.243,94.888 C42.128,114.371 53.441,137.525 55.225,141.506 C55.736,142.654 56.541,145.362 57.444,148.675 C63.726,139.798 71.39,132.461 80.549,127.076 C93.619,119.396 108.642,116.231 124.861,116.992 C120.945,110.775 117.382,104.373 115.669,99.391 C111.269,86.615 95.321,33.861 85.993,11.338 C76.67,-11.185 41.159,4.844 20.523,16.576 C-0.113,28.308 -1.27,42.765 0.829,46.747 C2.923,50.728 16.358,75.405 29.243,94.888 Z" id="Path"></path>
            <path d="M108.37,167.478 C135.816,156.165 141.684,169.888 141.684,169.888 C150.381,161.822 144.306,152.287 144.306,152.287 C144.306,152.287 146.503,148.202 142.946,144.009 C140.77,141.453 133.759,132.174 127.624,122.427 C111.405,121.666 96.382,124.831 83.312,132.511 C74.153,137.896 66.489,145.228 60.207,154.11 C62.442,162.296 65.309,174.289 66.054,176.378 C67.104,179.31 69.823,183.291 72.342,183.813 C74.855,184.335 76.323,186.745 76.323,186.745 C79.57,193.343 89.73,193.761 89.73,193.761 C89.73,193.761 80.919,178.791 108.37,167.478 Z" id="Path"></path>
            <path d="M313.156,225.659 C304.747,219.083 293.494,215.923 284.525,210.103 C261.338,195.059 291.373,181.2 301.315,172.236 C318.198,157.017 322.631,139.482 315.641,118.188 C313.455,111.525 308.717,104.498 310.904,111.155 C322.854,147.575 284.878,164.98 265.591,185.344 C258.488,192.844 259.467,200.976 266.847,208.46 C281.125,222.939 324.077,235.16 297.453,257.667 C278.792,273.44 249.829,274.854 229.144,288.175 C226.348,289.975 226.022,294.816 228.834,296.785 C249.149,310.992 277.274,307.571 297.29,320.472 C262.763,330.861 226.544,324.084 191.038,320.831 C191.179,319.825 191.054,318.971 191.054,318.971 C186.54,291.313 186.083,285.314 188.177,271.483 C190.271,257.657 188.177,256.395 188.177,256.395 C166.807,227.062 140.846,171.665 140.846,171.665 C137.387,165.905 123.664,163.463 106.694,171.034 C89.093,178.893 90.35,189.679 90.35,189.679 L120.21,277.705 C121.26,280.533 126.079,281.893 126.079,281.893 C154.052,289.959 176.853,318.226 179.893,322.626 C182.933,327.026 185.131,325.351 185.131,325.351 L152.508,252.288 C150.017,251.717 147.477,249.552 145.981,246.343 C143.816,241.693 144.676,236.71 147.901,235.209 C151.126,233.708 155.494,236.259 157.659,240.909 C159.291,244.412 159.198,248.099 157.681,250.351 L188.782,320.624 C188.554,320.602 188.325,320.58 188.097,320.559 C181.157,319.961 188.44,328.821 207.939,331.269 C251.397,336.724 268.394,336.387 310.275,327.516 C314.572,326.608 314.648,321.12 311.825,318.242 C293.278,299.314 266.121,303.35 243.886,293.01 C272.173,281.1 349.778,254.301 313.156,225.659 Z" id="Path"></path>
        </g>
    </g>
</svg>