<?xml version="1.0" encoding="UTF-8"?>
<svg width="16px" height="16px" viewBox="0 0 16 16" version="1.1" xmlns="http://www.w3.org/2000/svg" xmlns:xlink="http://www.w3.org/1999/xlink">
    <!-- Generator: Sketch 53.2 (72643) - https://sketchapp.com -->
    <title>baseline-border_all-24px</title>
    <desc>Created with Sketch.</desc>
    <g id="Page-1" stroke="none" stroke-width="1" fill="none" fill-rule="evenodd">
        <g id="baseline-border_all-24px" transform="translate(-2.000000, -2.000000)">
            <path d="M2.5,2.5 L2.5,17.5 L17.5,17.5 L17.5,2.5 L2.5,2.5 Z M9.16666667,15.8333333 L4.16666667,15.8333333 L4.16666667,10.8333333 L9.16666667,10.8333333 L9.16666667,15.8333333 Z M9.16666667,9.16666667 L4.16666667,9.16666667 L4.16666667,4.16666667 L9.16666667,4.16666667 L9.16666667,9.16666667 Z M15.8333333,15.8333333 L10.8333333,15.8333333 L10.8333333,10.8333333 L15.8333333,10.8333333 L15.8333333,15.8333333 Z M15.8333333,9.16666667 L10.8333333,9.16666667 L10.8333333,4.16666667 L15.8333333,4.16666667 L15.8333333,9.16666667 Z" id="Shape" fill="#000000" fill-rule="nonzero"></path>
            <polygon id="Path" points="0 0 20 0 20 20 0 20"></polygon>
        </g>
    </g>
</svg>